<svg width="68" height="66" viewBox="0 0 68 66" fill="none" xmlns="http://www.w3.org/2000/svg">
<path d="M39.8618 59.2043C39.8618 59.2043 61.4468 59.2043 61.4468 41.5453" stroke="#231815" stroke-width="3" stroke-miterlimit="10" stroke-linecap="round"/>
<path d="M61.5156 43.6911H52.5965V27.3595H61.5156C63.8977 27.3595 65.8335 29.2389 65.8335 31.5549V39.4972C65.8335 41.8117 63.8992 43.6926 61.5156 43.6926V43.6911Z" fill="#2C2D2D" stroke="#231815" stroke-width="3" stroke-miterlimit="10" stroke-linecap="round"/>
<path d="M6.31791 27.3579H15.237V43.6895H6.31791C3.93582 43.6895 2 41.8101 2 39.4941V31.5518C2 29.2373 3.9343 27.3564 6.31791 27.3564V27.3579Z" fill="#2C2D2D" stroke="#231815" stroke-width="3" stroke-miterlimit="10" stroke-linecap="round"/>
<path d="M59.0677 35.7413C52.6739 67.7681 3.49692 59.3374 8.76522 27.1227C15.1591 -4.90269 64.336 3.528 59.0677 35.7413Z" fill="white" stroke="#231815" stroke-width="2" stroke-linecap="round" stroke-linejoin="round"/>
<path d="M25.7737 44.7728C25.6351 52.616 13.6273 52.6145 13.4917 44.7728C13.6303 36.9296 25.6382 36.9311 25.7737 44.7728Z" fill="#F3A89F"/>
<path d="M54.3416 44.7728C54.203 52.616 42.1951 52.6145 42.0596 44.7728C42.1982 36.9297 54.2061 36.9311 54.3416 44.7728Z" fill="#F3A89F"/>
<path d="M59.1059 35.7413C52.7121 67.7681 3.53517 59.3374 8.80499 27.1227C15.1988 -4.90269 64.3758 3.528 59.1059 35.7413Z" stroke="#231815" stroke-width="3" stroke-linecap="round" stroke-linejoin="round"/>
<path d="M16.5313 50.2187C13.4228 57.4847 21.4813 63.0415 27.3299 55.8613C24.2228 55.2028 19.7374 53.1976 16.5313 50.2187Z" fill="#F49E15" stroke="#231815" stroke-width="3" stroke-linecap="round" stroke-linejoin="round"/>
<path d="M22.4533 9.25055C20.65 5.99637 15.6162 5.59237 15.6162 5.59237" stroke="#231815" stroke-width="3" stroke-linecap="round" stroke-linejoin="round"/>
<path d="M22.4536 1.55832L23.1801 8.91908" stroke="#231815" stroke-width="3" stroke-linecap="round" stroke-linejoin="round"/>
<path d="M21.9292 39.7444C24.0051 38.3193 26.0811 38.6093 26.0811 38.6093" stroke="#231815" stroke-width="3" stroke-miterlimit="10" stroke-linecap="round"/>
<path d="M45.9038 39.7444C43.8279 38.3193 41.752 38.6093 41.752 38.6093" stroke="#231815" stroke-width="3" stroke-miterlimit="10" stroke-linecap="round"/>
<path d="M39.0442 58.0708H36.2448C35.6005 58.0708 35.0781 58.5783 35.0781 59.2043C35.0781 59.8304 35.6005 60.3379 36.2448 60.3379H39.0442C39.6885 60.3379 40.2109 59.8304 40.2109 59.2043C40.2109 58.5783 39.6885 58.0708 39.0442 58.0708Z" fill="#2C2D2D" stroke="#231815" stroke-width="10.18" stroke-miterlimit="10" stroke-linecap="round"/>
</svg>
