<svg width="46" height="68" viewBox="0 0 46 68" fill="none" xmlns="http://www.w3.org/2000/svg">
<path d="M15.0547 63.2856H31.782" stroke="#FFC300" stroke-width="8" stroke-linecap="round" stroke-linejoin="round"/>
<mask id="path-2-inside-1_169_246" fill="white">
<path fill-rule="evenodd" clip-rule="evenodd" d="M36.8 41.96C42.3865 37.7639 46 31.0831 46 23.5583C46 10.8558 35.7025 0.558319 23 0.558319C10.2975 0.558319 0 10.8558 0 23.5583C0 31.4523 3.97685 38.4174 10.0364 42.5595V48.922C10.0364 52.2357 12.7227 54.922 16.0364 54.922H30.8C34.1137 54.922 36.8 52.2357 36.8 48.922V41.96Z"/>
</mask>
<path fill-rule="evenodd" clip-rule="evenodd" d="M36.8 41.96C42.3865 37.7639 46 31.0831 46 23.5583C46 10.8558 35.7025 0.558319 23 0.558319C10.2975 0.558319 0 10.8558 0 23.5583C0 31.4523 3.97685 38.4174 10.0364 42.5595V48.922C10.0364 52.2357 12.7227 54.922 16.0364 54.922H30.8C34.1137 54.922 36.8 52.2357 36.8 48.922V41.96Z" fill="#FFC300"/>
<path d="M36.8 41.96L36.1994 41.1604L35.8 41.4605V41.96H36.8ZM10.0364 42.5595H11.0364V42.0318L10.6007 41.734L10.0364 42.5595ZM45 23.5583C45 30.7553 41.5452 37.145 36.1994 41.1604L37.4006 42.7596C43.2277 38.3827 47 31.4109 47 23.5583H45ZM23 1.55832C35.1503 1.55832 45 11.4081 45 23.5583H47C47 10.3035 36.2548 -0.441681 23 -0.441681V1.55832ZM1 23.5583C1 11.4081 10.8497 1.55832 23 1.55832V-0.441681C9.74517 -0.441681 -1 10.3035 -1 23.5583H1ZM10.6007 41.734C4.80214 37.7703 1 31.1082 1 23.5583H-1C-1 31.7964 3.15155 39.0646 9.47204 43.3851L10.6007 41.734ZM11.0364 48.922V42.5595H9.03636V48.922H11.0364ZM16.0364 53.922C13.2749 53.922 11.0364 51.6834 11.0364 48.922H9.03636C9.03636 52.788 12.1704 55.922 16.0364 55.922V53.922ZM30.8 53.922H16.0364V55.922H30.8V53.922ZM35.8 48.922C35.8 51.6834 33.5614 53.922 30.8 53.922V55.922C34.666 55.922 37.8 52.7879 37.8 48.922H35.8ZM35.8 41.96V48.922H37.8V41.96H35.8Z" fill="#FFC300" mask="url(#path-2-inside-1_169_246)"/>
</svg>
