<svg width="14" height="17" viewBox="0 0 14 17" fill="none" xmlns="http://www.w3.org/2000/svg">
<path id="Star 3" d="M6.02656 2.6977C6.26833 1.6696 7.73167 1.6696 7.97344 2.6977L8.60622 5.38847C8.66457 5.63656 8.81543 5.85301 9.028 5.99361L11.739 7.78676C12.3368 8.18214 12.3368 9.0595 11.739 9.45488L9.028 11.248C8.81543 11.3886 8.66457 11.6051 8.60622 11.8532L7.97344 14.5439C7.73167 15.572 6.26833 15.572 6.02656 14.5439L5.39378 11.8532C5.33543 11.6051 5.18457 11.3886 4.972 11.248L2.26099 9.45488C1.66322 9.0595 1.66322 8.18214 2.26099 7.78676L4.972 5.99361C5.18457 5.85301 5.33543 5.63656 5.39378 5.38847L6.02656 2.6977Z" fill="#C5E5FF" stroke="black" stroke-width="3"/>
</svg>
