<svg width="20" height="28" viewBox="0 0 20 28" fill="none" xmlns="http://www.w3.org/2000/svg">
<path id="Star 2" d="M9.02583 2.76082C9.26511 1.72858 10.7349 1.72857 10.9742 2.76082L12.4564 9.1552C12.5137 9.40231 12.6628 9.61842 12.8734 9.75976L17.7625 13.0404C18.3529 13.4366 18.3529 14.305 17.7625 14.7012L12.8734 17.9819C12.6628 18.1232 12.5137 18.3393 12.4564 18.5864L10.9742 24.9808C10.7349 26.0131 9.26511 26.0131 9.02583 24.9808L7.54357 18.5864C7.48628 18.3393 7.33723 18.1232 7.1266 17.9819L2.23749 14.7012C1.64709 14.305 1.64709 13.4366 2.23749 13.0404L7.1266 9.75976C7.33723 9.61842 7.48628 9.40232 7.54357 9.1552L9.02583 2.76082Z" fill="#C5E5FF" stroke="black" stroke-width="3"/>
</svg>
