<svg width="116" height="119" viewBox="0 0 116 119" fill="none" xmlns="http://www.w3.org/2000/svg">
<g id="&#235;&#160;&#136;&#236;&#157;&#180;&#236;&#150;&#180; 1">
<g id="Group">
<path id="Vector" d="M80.6201 91.4264C125.757 104.194 122.782 111.41 75.2498 110.085L80.6201 91.4264Z" fill="#F49E15" stroke="#231815" stroke-width="5.88" stroke-linecap="round" stroke-linejoin="round"/>
<path id="Vector_2" d="M103.603 73.8629C90.9173 139.739 -6.67872 122.398 3.78311 56.1409C16.4689 -9.72776 114.058 7.61255 103.603 73.8629Z" fill="white" stroke="#231815" stroke-width="2.76" stroke-linecap="round" stroke-linejoin="round"/>
<path id="Vector_3" d="M37.4855 91.4264C37.2137 107.557 13.3796 107.557 13.1079 91.4264C13.3796 75.2959 37.2137 75.2959 37.4855 91.4264Z" fill="#F3A89F"/>
<path id="Vector_4" d="M30.8638 19.3792L11.5491 18.9255" stroke="#231815" stroke-width="5.52" stroke-linecap="round" stroke-linejoin="round"/>
<path id="Vector_5" d="M10.2119 3.55832L32.3083 18.6951" stroke="#231815" stroke-width="5.52" stroke-linecap="round" stroke-linejoin="round"/>
<path id="Vector_6" d="M95.4296 90.5191C95.1578 106.65 71.3237 106.65 71.052 90.5191C71.3237 74.3886 95.1578 74.3886 95.4296 90.5191Z" fill="#F3A89F"/>
<path id="Vector_7" d="M103.603 73.8629C90.9173 139.739 -6.67872 122.398 3.78311 56.1409C16.4689 -9.72776 114.058 7.61255 103.603 73.8629Z" stroke="#231815" stroke-width="5.52" stroke-linecap="round" stroke-linejoin="round"/>
<path id="Vector_8" d="M38.3148 81.8561C38.0574 83.4548 36.5342 84.5638 34.9467 84.3045C33.3592 84.0453 31.5572 82.2666 32.4939 79.3286C32.4939 79.3286 36.384 81.5393 38.3148 81.8561Z" fill="#231815" stroke="#231815" stroke-width="3.01" stroke-linecap="round" stroke-linejoin="round"/>
<path id="Vector_9" d="M69.1714 81.8561C69.4288 83.4548 70.952 84.5638 72.5395 84.3045C74.127 84.0453 75.929 82.2666 74.9923 79.3286C74.9923 79.3286 71.1021 81.5393 69.1714 81.8561Z" fill="#231815" stroke="#231815" stroke-width="3.01" stroke-linecap="round" stroke-linejoin="round"/>
</g>
</g>
</svg>
