<svg width="116" height="118" viewBox="0 0 116 118" fill="none" xmlns="http://www.w3.org/2000/svg">
<g id="&#235;&#160;&#136;&#236;&#157;&#180;&#236;&#150;&#180; 2">
<g id="Group">
<path id="Vector" d="M35.1368 90.8172C-10.0016 103.496 -7.02667 110.662 40.5073 109.346L35.1368 90.8172Z" fill="#F49E15" stroke="#231815" stroke-width="5.88" stroke-linecap="round" stroke-linejoin="round"/>
<path id="Vector_2" d="M12.1531 73.3754C24.8393 138.795 122.439 121.574 111.977 55.7764C99.2904 -9.63563 1.69805 7.58445 12.1531 73.3754Z" fill="white" stroke="#231815" stroke-width="2.76" stroke-linecap="round" stroke-linejoin="round"/>
<path id="Vector_3" d="M78.2729 90.8172C78.5447 106.836 102.38 106.836 102.651 90.8172C102.38 74.7985 78.5447 74.7985 78.2729 90.8172Z" fill="#F3A89F"/>
<path id="Vector_4" d="M84.8951 19.2695L104.21 18.8189" stroke="#231815" stroke-width="5.52" stroke-linecap="round" stroke-linejoin="round"/>
<path id="Vector_5" d="M105.548 3.55832L83.4507 18.5901" stroke="#231815" stroke-width="5.52" stroke-linecap="round" stroke-linejoin="round"/>
<path id="Vector_6" d="M20.3267 89.9161C20.5984 105.935 44.4333 105.935 44.7051 89.9161C44.4333 73.8974 20.5984 73.8974 20.3267 89.9161Z" fill="#F3A89F"/>
<path id="Vector_7" d="M12.1531 73.3754C24.8393 138.795 122.439 121.574 111.977 55.7764C99.2904 -9.63563 1.69805 7.58445 12.1531 73.3754Z" stroke="#231815" stroke-width="5.52" stroke-linecap="round" stroke-linejoin="round"/>
<g id="Group_2">
<path id="Vector_8" d="M76.0165 82.2554C75.945 87.0682 83.5109 87.0682 83.4394 82.2554C83.5109 77.4427 75.945 77.4427 76.0165 82.2554Z" fill="#231815"/>
<path id="Vector_9" d="M40.525 82.6416C40.4607 86.9466 47.2257 86.9466 47.1685 82.6416C47.2328 78.3366 40.4678 78.3366 40.525 82.6416Z" fill="#231815"/>
</g>
</g>
</g>
</svg>
