<svg width="26" height="25" viewBox="0 0 26 25" fill="none" xmlns="http://www.w3.org/2000/svg">
<path id="Star 1" d="M10.7104 3.45742C11.3066 1.60959 13.921 1.60959 14.5172 3.45742L15.6165 6.86451C15.883 7.69054 16.6519 8.25037 17.5199 8.25037H21.1069C23.041 8.25037 23.8487 10.7225 22.2879 11.8645L19.3619 14.0053C18.6658 14.5145 18.3746 15.4127 18.6394 16.2335L19.7514 19.6797C20.3467 21.5248 18.2317 23.0527 16.6671 21.908L13.7947 19.8065C13.0915 19.2919 12.1361 19.2919 11.4328 19.8065L8.56053 21.908C6.99586 23.0527 4.88088 21.5248 5.47621 19.6797L6.58815 16.2335C6.85299 15.4127 6.5618 14.5145 5.86572 14.0053L2.93973 11.8645C1.37884 10.7225 2.18663 8.25037 4.12068 8.25037H7.70773C8.57569 8.25037 9.34458 7.69054 9.6111 6.86451L10.7104 3.45742Z" fill="#FFDD44" stroke="black" stroke-width="4"/>
</svg>
