<svg width="116" height="135" viewBox="0 0 116 135" fill="none" xmlns="http://www.w3.org/2000/svg">
<g id="&#235;&#160;&#136;&#236;&#157;&#180;&#236;&#150;&#180; 1">
<g id="Group">
<path id="Vector" d="M20.5159 111.82C13.8403 127.983 31.1367 140.346 43.699 124.377C37.0311 122.912 27.4005 118.449 20.5159 111.82Z" fill="#F49E15" stroke="#231815" stroke-width="5.52" stroke-linecap="round" stroke-linejoin="round"/>
<path id="Vector_2" d="M33.2251 20.6723C29.3574 13.4279 18.551 12.5321 18.551 12.5321" stroke="#231815" stroke-width="5.52" stroke-linecap="round" stroke-linejoin="round"/>
<path id="Vector_3" d="M33.2251 3.55832L34.7877 19.9323" stroke="#231815" stroke-width="5.52" stroke-linecap="round" stroke-linejoin="round"/>
<path id="Vector_4" d="M111.825 79.6093C98.1023 150.87 -7.46315 132.112 3.84606 60.4388C17.5687 -10.8137 123.142 7.94395 111.825 79.6093Z" fill="white" stroke="#231815" stroke-width="2.76" stroke-linecap="round" stroke-linejoin="round"/>
<g id="Group_2">
<path id="Vector_5" d="M40.3574 99.7068C40.0634 117.156 14.2813 117.156 13.9873 99.7068C14.2813 82.2578 40.0634 82.2578 40.3574 99.7068Z" fill="#F3A89F"/>
<path id="Vector_6" d="M101.684 99.7068C101.39 117.156 75.6079 117.156 75.314 99.7068C75.6079 82.2578 101.39 82.2578 101.684 99.7068Z" fill="#F3A89F"/>
</g>
<path id="Vector_7" d="M111.91 79.6093C98.1873 150.87 -7.38584 132.112 3.9311 60.4388C17.6538 -10.8137 123.219 7.94395 111.91 79.6093Z" stroke="#231815" stroke-width="5.52" stroke-linecap="round" stroke-linejoin="round"/>
<g id="Group_3">
<path id="Vector_8" d="M31.4229 88.5208C35.3525 82.3124 41.7806 85.584 41.7806 85.584" stroke="#231815" stroke-width="5" stroke-miterlimit="10" stroke-linecap="round"/>
<path id="Vector_9" d="M84.078 88.2793C79.692 82.3824 73.5269 86.1371 73.5269 86.1371" stroke="#231815" stroke-width="5" stroke-miterlimit="10" stroke-linecap="round"/>
</g>
</g>
</g>
</svg>
