<svg width="116" height="140" viewBox="0 0 116 140" fill="none" xmlns="http://www.w3.org/2000/svg">
<g id="&#235;&#160;&#136;&#236;&#157;&#180;&#236;&#150;&#180; 1">
<path id="Vector" d="M112.389 69.4373C111.162 141.85 4.19515 141.842 2.97559 69.4373C4.20287 -2.97537 111.17 -2.96759 112.389 69.4373Z" fill="white" stroke="#231815" stroke-width="2.76" stroke-linecap="round" stroke-linejoin="round"/>
<path id="Vector_2" d="M39.9794 121.71C39.9485 139.176 60.5808 143.933 66.1074 124.384C59.3998 125.597 48.8328 125.177 39.9794 121.71Z" fill="#F49E15" stroke="#231815" stroke-width="5.52" stroke-linecap="round" stroke-linejoin="round"/>
<path id="Vector_3" d="M41.5077 98.2205C41.2144 115.632 15.4878 115.632 15.1945 98.2205C15.4878 80.8091 41.2144 80.8091 41.5077 98.2205Z" fill="#F3A89F"/>
<path id="Vector_4" d="M34.1981 19.846C30.3387 12.6171 19.5555 11.7233 19.5555 11.7233" stroke="#231815" stroke-width="5.52" stroke-linecap="round" stroke-linejoin="round"/>
<path id="Vector_5" d="M34.198 2.76883L35.7495 19.1075" stroke="#231815" stroke-width="5.52" stroke-linecap="round" stroke-linejoin="round"/>
<path id="Vector_6" d="M102.702 98.2205C102.409 115.632 76.6822 115.632 76.3889 98.2205C76.6822 80.8091 102.409 80.8091 102.702 98.2205Z" fill="#F3A89F"/>
<g id="Group">
<path id="Vector_7" d="M42.8661 87.6105C42.9433 92.8416 34.7769 92.8416 34.8541 87.6105C34.7769 82.3793 42.9433 82.3793 42.8661 87.6105Z" fill="#231815"/>
<path id="Vector_8" d="M81.1744 88.0302C81.2439 92.7095 73.9419 92.7095 74.0037 88.0302C73.9342 83.3508 81.2362 83.3508 81.1744 88.0302Z" fill="#231815"/>
</g>
<path id="Vector_9" d="M111.887 79.0058C98.1943 150.105 -7.15149 131.395 4.14107 59.8688C17.8342 -11.2302 123.172 7.48698 111.887 79.0058Z" stroke="#231815" stroke-width="5.52" stroke-linecap="round" stroke-linejoin="round"/>
</g>
</svg>
